<svg xmlns="http://www.w3.org/2000/svg" width="17.136" height="17.456" viewBox="0 0 17.136 17.456"><defs><style>.a{fill:#00afaa;}</style></defs><g transform="translate(0 -25)"><path class="a" d="M98.776,249H97.567a.567.567,0,0,0,0,1.134h1.209a.567.567,0,0,0,0-1.134Z" transform="translate(-93.811 -215.536)"/><path class="a" d="M98.776,313H97.567a.567.567,0,1,0,0,1.134h1.209a.567.567,0,1,0,0-1.134Z" transform="translate(-93.811 -277.118)"/><path class="a" d="M98.776,377H97.567a.567.567,0,0,0,0,1.134h1.209a.567.567,0,0,0,0-1.134Z" transform="translate(-93.811 -338.7)"/><path class="a" d="M226.776,249h-1.209a.567.567,0,1,0,0,1.134h1.209a.567.567,0,1,0,0-1.134Z" transform="translate(-217.603 -215.536)"/><path class="a" d="M226.776,313h-1.209a.567.567,0,1,0,0,1.134h1.209a.567.567,0,1,0,0-1.134Z" transform="translate(-217.603 -277.118)"/><path class="a" d="M226.776,377h-1.209a.567.567,0,1,0,0,1.134h1.209a.567.567,0,1,0,0-1.134Z" transform="translate(-217.603 -338.7)"/><path class="a" d="M354.776,249h-1.209a.567.567,0,1,0,0,1.134h1.209a.567.567,0,1,0,0-1.134Z" transform="translate(-341.395 -215.536)"/><path class="a" d="M354.776,313h-1.209a.567.567,0,1,0,0,1.134h1.209a.567.567,0,1,0,0-1.134Z" transform="translate(-341.395 -277.118)"/><path class="a" d="M354.776,377h-1.209a.567.567,0,1,0,0,1.134h1.209a.567.567,0,1,0,0-1.134Z" transform="translate(-341.395 -338.7)"/><path class="a" d="M15.63,26.511h-1.2v-.945a.506.506,0,1,0-1,0v.945H9.07v-.945a.506.506,0,1,0-1,0v.945H3.715v-.945a.537.537,0,0,0-.5-.567.537.537,0,0,0-.5.567v.945h-1.2A1.614,1.614,0,0,0,0,28.212V40.756a1.614,1.614,0,0,0,1.506,1.7H15.63a1.614,1.614,0,0,0,1.506-1.7V28.212A1.614,1.614,0,0,0,15.63,26.511ZM1,28.212a.538.538,0,0,1,.5-.567h1.2v.945a.537.537,0,0,0,.5.567.537.537,0,0,0,.5-.567v-.945H8.066v.945a.506.506,0,1,0,1,0v-.945h4.351v.945a.506.506,0,1,0,1,0v-.945h1.2a.538.538,0,0,1,.5.567v2.229H1ZM15.63,41.323H1.506a.538.538,0,0,1-.5-.567V31.574H16.132v9.182A.538.538,0,0,1,15.63,41.323Z"/></g></svg>