<svg xmlns="http://www.w3.org/2000/svg" width="50" height="50.226" viewBox="0 0 50 50.226"><defs><style>.a,.b{fill:#00afaa;}.a{opacity:0.5;}</style></defs><path class="a" d="M32.36,43.719v2.027a.719.719,0,0,1-.719.719H22.977a2.175,2.175,0,0,0,0-.234,6.818,6.818,0,0,0-.381-1.5A7.8,7.8,0,0,0,21.73,43h9.911A.719.719,0,0,1,32.36,43.719Z" transform="translate(-5.75 -8.367)"/><rect class="a" width="15.594" height="3.465" rx="0.83" transform="translate(32.673 45.028)"/><path class="a" d="M32.61,55.719v2.027a.719.719,0,0,1-.719.719H17.735a.684.684,0,0,1-.606-.347h0v-.13h0a.65.65,0,0,1,0-.225V56.343A7.572,7.572,0,0,0,19.511,55h12.38A.719.719,0,0,1,32.61,55.719Z" transform="translate(-5.134 -9.972)"/><rect class="a" width="15.594" height="3.465" rx="0.83" transform="translate(30.074 39.83)"/><path class="a" d="M34.957,49.719v2.027a.719.719,0,0,1-.719.719H21.72a6.973,6.973,0,0,0,.572-.988,7.667,7.667,0,0,0,.7-2.478H34.256A.719.719,0,0,1,34.957,49.719Z" transform="translate(-5.749 -9.17)"/><rect class="a" width="15.594" height="3.465" rx="0.83" transform="translate(32.673 34.633)"/><rect class="a" width="15.594" height="3.465" rx="0.83" transform="translate(31.807 29.435)"/><rect class="a" width="15.594" height="3.465" rx="0.83" transform="translate(8.417 24.237)"/><rect class="a" width="15.594" height="3.465" rx="0.83" transform="translate(10.149 19.039)"/><path class="a" d="M31.594,37.719v2.027a.719.719,0,0,1-.719.719H19.387A7.883,7.883,0,0,0,16,38.88V37.719a.71.71,0,0,1,.251-.546A.719.719,0,0,1,16.719,37H30.875A.719.719,0,0,1,31.594,37.719Z" transform="translate(-4.984 -7.565)"/><path class="a" d="M20.766,45.7a6.818,6.818,0,0,0-.364-1.5,7.684,7.684,0,0,0-1.135-2.122A7.8,7.8,0,0,0,13.706,39h-.615a7.8,7.8,0,0,0-7.346,5.2,7.182,7.182,0,0,0-.364,1.473v.26a5.44,5.44,0,0,0-.061.866,6.931,6.931,0,0,0,.052.866,7.658,7.658,0,0,0,.7,2.486,7.8,7.8,0,0,0,6.983,4.444,7.667,7.667,0,0,0,1.343-.121,7.857,7.857,0,0,0,4.834-2.919l.13-.173A7.745,7.745,0,0,0,20.8,47.663a7.156,7.156,0,0,0,.052-.866A6.229,6.229,0,0,0,20.766,45.7Zm-8.36.234h.866a2.177,2.177,0,0,1,.433,4.332v.866a.866.866,0,0,1-1.733,0v-.866h-.866a.866.866,0,1,1,0-1.733h2.166a.433.433,0,0,0,0-.866h-.866a2.177,2.177,0,0,1-.433-4.332v-.866a.866.866,0,1,1,1.733,0v.866h.866a.866.866,0,0,1,0,1.733H12.406a.433.433,0,0,0,0,.866Z" transform="translate(-3.557 -7.833)"/><path class="a" d="M30.507,11.691a6.818,6.818,0,0,0-.364-1.5,7.8,7.8,0,0,0-14.727,0,7.182,7.182,0,0,0-.364,1.473v.26a5.44,5.44,0,0,0-.052.866,6.93,6.93,0,0,0,.052.866,7.658,7.658,0,0,0,.7,2.486,7.8,7.8,0,0,0,14.086,0,7.667,7.667,0,0,0,.7-2.486,7.156,7.156,0,0,0,.052-.866A6.229,6.229,0,0,0,30.507,11.691Zm-8.143.234h.866a2.177,2.177,0,1,1,.433,4.332v.866a.866.866,0,0,1-1.733,0v-.866h-.866a.866.866,0,0,1,0-1.733H23.23a.433.433,0,1,0,0-.866h-.866a2.166,2.166,0,0,1-.433-4.288V8.46a.866.866,0,0,1,1.733,0v.866h.866a.866.866,0,0,1,0,1.733H22.364a.433.433,0,0,0,0,.866Z" transform="translate(-4.851 -3.282)"/><path class="a" d="M56.507,23.691a6.818,6.818,0,0,0-.364-1.5,7.8,7.8,0,0,0-14.727,0,7.182,7.182,0,0,0-.364,1.473v.26a5.44,5.44,0,0,0-.052.866,6.93,6.93,0,0,0,.052.866,7.658,7.658,0,0,0,.7,2.486,7.8,7.8,0,0,0,14.086,0,7.667,7.667,0,0,0,.7-2.486,7.155,7.155,0,0,0,.052-.866A6.229,6.229,0,0,0,56.507,23.691Zm-8.143.234h.866a2.177,2.177,0,1,1,.433,4.332v.866a.866.866,0,0,1-1.733,0v-.866h-.866a.866.866,0,1,1,0-1.733H49.23a.433.433,0,1,0,0-.866h-.866a2.166,2.166,0,0,1-.433-4.288v-.91a.866.866,0,1,1,1.733,0v.866h.866a.866.866,0,1,1,0,1.733H48.364a.433.433,0,0,0,0,.866Z" transform="translate(-8.326 -4.886)"/><path class="b" d="M52.15,36.313a2.382,2.382,0,0,0,.269-1.109V33.177a2.452,2.452,0,0,0-2.452-2.452h-.754a9.434,9.434,0,0,0,4.011-6.731,8.5,8.5,0,0,0,.061-1.066,8.186,8.186,0,0,0-.1-1.36,8.923,8.923,0,0,0-.442-1.811,9.529,9.529,0,0,0-17.959,0,8.94,8.94,0,0,0-.459,1.9,1.994,1.994,0,0,0,0,.225,8.663,8.663,0,0,0,0,2.122A9.426,9.426,0,0,0,38.3,30.725H35.811a2.452,2.452,0,0,0-2.452,2.452V35.2a2.434,2.434,0,0,0,1.135,2.062,2.382,2.382,0,0,0-.269,1.109V40.4a2.192,2.192,0,0,0,.113.719h-.26a2.434,2.434,0,0,0-1.585.589,2.434,2.434,0,0,0-1.585-.589h-.26a2.192,2.192,0,0,0,.113-.719V38.375a2.382,2.382,0,0,0-.269-1.109A2.434,2.434,0,0,0,31.627,35.2V33.177a2.452,2.452,0,0,0-2.452-2.452h-.26a2.192,2.192,0,0,0,.113-.719V27.979a2.235,2.235,0,0,0-.139-.8,2.434,2.434,0,0,0,1.871-2.374V22.781a2.452,2.452,0,0,0-2.452-2.452h-1.62A9.434,9.434,0,0,0,30.7,13.6a8.5,8.5,0,0,0,.061-1.066,8.186,8.186,0,0,0-.1-1.36,8.923,8.923,0,0,0-.442-1.811,9.529,9.529,0,0,0-17.959,0,8.94,8.94,0,0,0-.459,1.9,1.992,1.992,0,0,0,0,.225,8.663,8.663,0,0,0,0,2.122,9.426,9.426,0,0,0,3.976,6.723h-1.62A2.452,2.452,0,0,0,11.7,22.781v2.027a2.235,2.235,0,0,0,.139.8,2.434,2.434,0,0,0-1.871,2.374v2.027a2.452,2.452,0,0,0,2.452,2.452h.26A9.529,9.529,0,0,0,3.809,38.8a8.94,8.94,0,0,0-.459,1.9,1.993,1.993,0,0,0,0,.225,8.663,8.663,0,0,0,0,2.122,9.434,9.434,0,0,0,.866,3.032,9.581,9.581,0,0,0,8.568,5.44,7.312,7.312,0,0,0,.754,0,2.443,2.443,0,0,0,2.348,1.733H30.041A2.452,2.452,0,0,0,32.493,50.8V48.771a2.382,2.382,0,0,0-.269-1.109,1.958,1.958,0,0,0,.269-.2,2.434,2.434,0,0,0,1.585.589h.26a2.192,2.192,0,0,0-.113.719V50.8a2.452,2.452,0,0,0,2.452,2.452H50.833A2.452,2.452,0,0,0,53.284,50.8V48.771a2.452,2.452,0,0,0-2.452-2.452h-.26a2.192,2.192,0,0,0,.113-.719V43.573a2.192,2.192,0,0,0-.113-.719h.26A2.452,2.452,0,0,0,53.284,40.4V38.375a2.434,2.434,0,0,0-1.135-2.062ZM29.175,32.458a.719.719,0,0,1,.719.719V35.2a.719.719,0,0,1-.719.719H20.131a9.408,9.408,0,0,0-5.579-3.292.719.719,0,0,1,.468-.173Zm-.147,5.917V40.4a.719.719,0,0,1-.719.719H22.244a4.271,4.271,0,0,0-.061-.494,8.923,8.923,0,0,0-.442-1.811,9.157,9.157,0,0,0-.468-1.161h7.035a.719.719,0,0,1,.719.719ZM14.188,15.851a7.658,7.658,0,0,1-.7-2.452,6.931,6.931,0,0,1-.052-.866,5.44,5.44,0,0,1,.061-.866c0-.043,0-.113,0-.156v-.1a7.182,7.182,0,0,1,.364-1.473,7.8,7.8,0,0,1,14.727,0,6.818,6.818,0,0,1,.364,1.49,6.229,6.229,0,0,1,.078,1.109,7.156,7.156,0,0,1-.052.866,7.667,7.667,0,0,1-.7,2.478,7.8,7.8,0,0,1-14.086,0Zm-.754,6.931a.719.719,0,0,1,.719-.719H28.309a.719.719,0,0,1,.719.719v2.027a.719.719,0,0,1-.719.719H14.153a.719.719,0,0,1-.719-.719ZM12.42,30.725a.719.719,0,0,1-.719-.719V27.979a.719.719,0,0,1,.719-.719H26.576a.719.719,0,0,1,.719.719v2.027a.719.719,0,0,1-.719.719Zm1.733,18.938a7.668,7.668,0,0,1-1.343.121,7.8,7.8,0,0,1-7.043-4.453,7.658,7.658,0,0,1-.728-2.478,6.931,6.931,0,0,1-.052-.866,5.441,5.441,0,0,1,.061-.866v-.26a7.182,7.182,0,0,1,.39-1.473,7.8,7.8,0,0,1,7.346-5.2H13.4a4.852,4.852,0,0,1,.866.121,7.883,7.883,0,0,1,3.422,1.611,7.338,7.338,0,0,1,1.3,1.343h0c.1.121.182.251.269.381a7.8,7.8,0,0,1,.866,1.733,6.818,6.818,0,0,1,.364,1.49,2.174,2.174,0,0,1,0,.234,6.748,6.748,0,0,1,.052.866,7.155,7.155,0,0,1-.052.866,7.667,7.667,0,0,1-.7,2.478,6.974,6.974,0,0,1-.528,1,1.568,1.568,0,0,1-.165.251l-.13.173a7.147,7.147,0,0,1-1.3,1.308,7.572,7.572,0,0,1-2.495,1.343,6.064,6.064,0,0,1-1.04.269ZM30.76,50.8a.719.719,0,0,1-.719.719H15.886a.684.684,0,0,1-.606-.347,9.434,9.434,0,0,0,4.843-3.119h9.919a.719.719,0,0,1,.719.719Zm.866-5.2a.719.719,0,0,1-.719.719H21.274l.121-.243a9.443,9.443,0,0,0,.866-3.023,1.42,1.42,0,0,0,0-.2h8.663a.719.719,0,0,1,.719.719Zm5.085-19.328a7.658,7.658,0,0,1-.7-2.478,6.929,6.929,0,0,1-.052-.866,5.44,5.44,0,0,1,.061-.866c0-.043,0-.113,0-.156v-.1a7.182,7.182,0,0,1,.364-1.473,7.8,7.8,0,0,1,14.727,0,6.818,6.818,0,0,1,.364,1.49,6.229,6.229,0,0,1,.078,1.109,7.156,7.156,0,0,1-.052.866,7.667,7.667,0,0,1-.7,2.478,7.8,7.8,0,0,1-14.086,0ZM35.092,33.2a.719.719,0,0,1,.719-.719H49.966a.719.719,0,0,1,.719.719V35.23a.719.719,0,0,1-.719.719H35.811a.719.719,0,0,1-.719-.719ZM34.078,46.319a.719.719,0,0,1-.719-.719V43.573a.719.719,0,0,1,.719-.719H48.234a.719.719,0,0,1,.719.719V45.6a.719.719,0,0,1-.719.719Zm16.755,1.733a.719.719,0,0,1,.719.719V50.8a.719.719,0,0,1-.719.719H36.677a.719.719,0,0,1-.719-.719V48.771a.719.719,0,0,1,.719-.719Zm.719-7.65a.719.719,0,0,1-.719.719H36.677a.719.719,0,0,1-.719-.719V38.375a.719.719,0,0,1,.719-.719H50.833a.719.719,0,0,1,.719.719Z" transform="translate(-3.285 -3.023)"/></svg>