<svg xmlns="http://www.w3.org/2000/svg" width="8.892" height="15.443" viewBox="0 0 8.892 15.443"><defs><style>.a{fill:#00afaa;stroke:#45afaa;stroke-width:0.5px;}</style></defs><g transform="translate(-117.975 0.25)"><path class="a" d="M120.149,4.041V1.374h.015a.453.453,0,0,0,.453-.453V.453A.453.453,0,0,0,120.164,0h-7.486a.453.453,0,0,0-.453.453V.921a.453.453,0,0,0,.453.453h.015V4.041a2.571,2.571,0,0,0,1.242,2.194L116,7.471l-2.061,1.236a2.571,2.571,0,0,0-1.242,2.194v2.668h-.015a.453.453,0,0,0-.453.453v.468a.453.453,0,0,0,.453.453h7.486a.453.453,0,0,0,.453-.453v-.468a.453.453,0,0,0-.453-.453h-.015V10.9a2.571,2.571,0,0,0-1.242-2.194l-2.061-1.236,2.061-1.236a2.571,2.571,0,0,0,1.242-2.194Zm-7.019-2.668h4.928a.219.219,0,0,0,0-.438h-5.381a.015.015,0,0,1-.015-.015V.453a.015.015,0,0,1,.015-.015h7.486a.015.015,0,0,1,.015.015V.921a.015.015,0,0,1-.015.015h-1.17a.219.219,0,0,0,0,.438h.717V4.041a2.123,2.123,0,0,1-.313,1.106h-5.955a2.123,2.123,0,0,1-.313-1.106V1.374Zm1.03,7.71L116.2,7.858v2.507l-3.072,1.229V10.9a2.131,2.131,0,0,1,1.03-1.818Zm.623,4.486a.219.219,0,0,0,0,.438h5.381a.015.015,0,0,1,.015.015v.468a.015.015,0,0,1-.015.015h-7.486a.015.015,0,0,1-.015-.015v-.468a.015.015,0,0,1,.015-.015h1.17a.219.219,0,0,0,0-.438h-.717v-1.5l3.29-1.316,3.29,1.316v1.5h-4.928Zm4.928-2.668v.692l-3.072-1.229V7.858l2.042,1.225A2.131,2.131,0,0,1,119.711,10.9Zm-3.29-3.685L114.16,5.86a2.1,2.1,0,0,1-.362-.275h5.245a2.1,2.1,0,0,1-.362.275Z" transform="translate(6 0)"/></g></svg>