<svg xmlns="http://www.w3.org/2000/svg" width="174" height="50" viewBox="0 0 174 50"><defs><style>.a{fill:#00afaa;}</style></defs><g transform="translate(0 0)"><path class="a" d="M180.215,1.4h8.3a1.271,1.271,0,0,1,1.292,1.311v35.3c0,.562-.461,1.03-1.292,1.03h-8.3a1.184,1.184,0,0,1-1.015-1.03V2.711A1.251,1.251,0,0,1,180.215,1.4" transform="translate(-15.81 -0.37)"/><path class="a" d="M128.292,1.4h8.3a1.251,1.251,0,0,1,1.015,1.311v35.3a1.032,1.032,0,0,1-1.015,1.03h-8.3A1.242,1.242,0,0,1,127,38.01V2.711A1.329,1.329,0,0,1,128.292,1.4" transform="translate(-11.769 -0.37)"/><path class="a" d="M161.491,11.231h8.027a1.184,1.184,0,0,0,1.015-1.03V2.711A1.181,1.181,0,0,0,169.518,1.4H145.992A1.271,1.271,0,0,0,144.7,2.711v7.4c0,.562.461,1.03,1.292,1.03h4.982V25.745a14.076,14.076,0,0,0,14.3,13.764h4.244a1.184,1.184,0,0,0,1.015-1.03v-8.24a1.032,1.032,0,0,0-1.015-1.03h-3.045a5.2,5.2,0,0,1-4.982-4.775v-13.2Z" transform="translate(-13.139 -0.37)"/><path class="a" d="M118.391,2.524a1.032,1.032,0,0,0-1.015-1.03h-8.488a1.184,1.184,0,0,0-1.015,1.03v26.03a13.16,13.16,0,0,1-6,1.873c-5.259,0-5.259-5.056-5.259-5.056V2.711A1.181,1.181,0,0,0,95.6,1.4H87.115A1.251,1.251,0,0,0,86.1,2.711v22a14.748,14.748,0,0,0,3.967,10.112,4.817,4.817,0,0,0,1.753,1.592,13.933,13.933,0,0,0,8.765,2.9h1.753a33.619,33.619,0,0,0,13.008-2.341c2.214-1.03,2.768-1.873,2.768-4.213Z" transform="translate(-8.603 -0.37)"/><path class="a" d="M25.165,15.937H12.71V14.345s.277-5.056,5.259-5.056h2.214c4.982,0,4.982,5.056,4.982,5.056Zm10.517-1.03C35.5,6.667,29.224.3,21.2.3H16.677C8.65.3,2.377,6.667,2.1,14.907v9.551c0,8.24,6.55,15.075,14.577,15.075h2.491c7.288,0,12.547-2.341,15.315-6.648,1.015-2.154.461-3.464-1.292-4.213l-3.506-2.154c-2.03-1.03-2.768-.749-3.967,1.03-1.476,1.873-3.506,2.622-6.55,2.622H17.692c-4.982,0-4.982-5.056-4.982-5.056V23.8H31.992c2.491,0,3.783-1.311,3.783-3.745l-.092-5.15Z" transform="translate(-2.1 -0.3)"/><path class="a" d="M75.747,2.922A35.085,35.085,0,0,0,63.2.3V9.289h2.214a2.521,2.521,0,0,1,2.491,2.622V27.547a2.579,2.579,0,0,1-2.491,2.622H63.2v9.27a25.926,25.926,0,0,0,4.8-.562V48.989A1.181,1.181,0,0,0,69.012,50.3h8.3a1.271,1.271,0,0,0,1.292-1.311V7.135c-.092-2.622-.554-3.371-2.86-4.213" transform="translate(-6.83 -0.3)"/><path class="a" d="M58.085,30.263a2.715,2.715,0,0,1-2.491-2.622V11.91a2.579,2.579,0,0,1,2.491-2.622H60.3V.3h-.738C51.535.3,45.261,6.667,44.8,14.907v9.551A15.059,15.059,0,0,0,59.561,39.532H60.3v-9.27Z" transform="translate(-5.406 -0.3)"/></g></svg>