<svg xmlns="http://www.w3.org/2000/svg" width="10.293" height="19.038" viewBox="0 0 10.293 19.038"><defs><style>.a{fill:#d0d0d0;}</style></defs><path class="a" d="M31.245,20.748H28.88c-.372,0-.5-.134-.5-.509q0-1.443,0-2.886c0-.37.141-.511.508-.511h2.362c0-.066,0-1.455,0-2.095a5.223,5.223,0,0,1,.65-2.68A3.945,3.945,0,0,1,34.02,10.3a5.253,5.253,0,0,1,1.821-.3q1.17,0,2.341,0c.335,0,.484.149.485.486q0,1.358,0,2.715c0,.341-.143.478-.486.482-.639.007-1.279,0-1.918.028a.869.869,0,0,0-.985.983c-.015.706-.006,1.413-.006,2.145h2.755c.39,0,.523.134.523.526q0,1.435,0,2.871c0,.386-.125.51-.518.51H35.263v7.745c0,.413-.13.545-.537.545h-2.98c-.36,0-.5-.14-.5-.5,0-2.522,0-7.7,0-7.79Z" transform="translate(-28.374 -9.999)"/></svg>