<svg xmlns="http://www.w3.org/2000/svg" width="50" height="50" viewBox="0 0 50 50"><defs><style>.a,.b{fill:#00afaa;}.a{opacity:0.5;}</style></defs><g transform="translate(-3 -3)"><path class="a" d="M46.623,9H10.845A1.866,1.866,0,0,0,9,10.887V42.22a1.866,1.866,0,0,0,1.845,1.887h1.716l.575-4.713a2.594,2.594,0,0,1,2.574-2.308h2.016l.575-4.713a2.594,2.594,0,0,1,2.574-2.308h2.016l.575-4.713a2.594,2.594,0,0,1,2.574-2.308h5.543a2.594,2.594,0,0,1,2.574,2.308l.48,4.713h2.016a2.594,2.594,0,0,1,2.574,2.308l.558,4.713H41.8a2.594,2.594,0,0,1,2.574,2.308l.558,4.713h1.716a1.867,1.867,0,0,0,1.819-1.887V10.887A1.866,1.866,0,0,0,46.623,9ZM24.015,22.051a.841.841,0,0,1-.654.088.861.861,0,0,1-.522-.413l-.858-1.518a.892.892,0,0,1,.317-1.2.851.851,0,0,1,1.175.325l.858,1.518a.9.9,0,0,1,.086.669A.875.875,0,0,1,24.015,22.051Zm5.577-1.641a.858.858,0,1,1-1.716,0V18.654a.858.858,0,1,1,1.716,0Zm5.894-.2-.858,1.518a.851.851,0,0,1-1.175.325.892.892,0,0,1-.317-1.2l.858-1.518a.851.851,0,0,1,1.175-.325.892.892,0,0,1,.317,1.2Z" transform="translate(-0.734 -0.734)"/><path class="a" d="M16.266,55v2.633a.878.878,0,0,1-.878.878H11.878A.878.878,0,0,1,11,57.633V55Z" transform="translate(-0.979 -7.266)"/><path class="a" d="M52.266,55v2.633a.878.878,0,0,1-.878.878H47.878A.878.878,0,0,1,47,57.633V55Z" transform="translate(-6.287 -7.266)"/><path class="b" d="M46.966,3H9.034A6.034,6.034,0,0,0,3,9.034V41.793a6.034,6.034,0,0,0,5.172,5.966v2.655A2.586,2.586,0,0,0,10.759,53h3.448a2.586,2.586,0,0,0,2.586-2.586V47.828H39.207v2.586A2.586,2.586,0,0,0,41.793,53h3.448a2.586,2.586,0,0,0,2.586-2.586V47.759A6.034,6.034,0,0,0,53,41.793V9.034A6.034,6.034,0,0,0,46.966,3Zm-31.9,47.414a.862.862,0,0,1-.862.862H10.759a.862.862,0,0,1-.862-.862V47.828h5.172Zm31.034,0a.862.862,0,0,1-.862.862H41.793a.862.862,0,0,1-.862-.862V47.828H46.1Zm5.172-8.621a4.31,4.31,0,0,1-4.31,4.31H9.034a4.31,4.31,0,0,1-4.31-4.31V9.034a4.31,4.31,0,0,1,4.31-4.31H46.966a4.31,4.31,0,0,1,4.31,4.31Z" transform="translate(0 0)"/><path class="b" d="M46.411,7H10.567A3.605,3.605,0,0,0,7,10.642V41.975a3.605,3.605,0,0,0,3.567,3.642H46.411a3.605,3.605,0,0,0,3.567-3.642V10.642A3.605,3.605,0,0,0,46.411,7ZM48.26,41.975a1.868,1.868,0,0,1-1.848,1.887H10.567a1.868,1.868,0,0,1-1.848-1.887V10.642a1.868,1.868,0,0,1,1.848-1.887H46.411a1.868,1.868,0,0,1,1.848,1.887Z" transform="translate(-0.489 -0.489)"/><path class="b" d="M44.784,41.351a2.586,2.586,0,0,0-2.561-2.308H40.234l-.572-4.713A2.586,2.586,0,0,0,37.1,32.021H35.111l-.572-4.713A2.586,2.586,0,0,0,31.978,25h-5.5a2.586,2.586,0,0,0-2.561,2.308l-.555,4.713H21.358A2.586,2.586,0,0,0,18.8,34.33l-.555,4.713H16.236a2.586,2.586,0,0,0-2.561,2.308l-.555,4.713h1.707l.546-4.494a.862.862,0,0,1,.854-.772h5.515a.862.862,0,0,1,.854.772l.555,4.494H25.08l.546-4.494a.862.862,0,0,1,.854-.772H32a.862.862,0,0,1,.854.772l.546,4.494h1.929l.546-4.494a.862.862,0,0,1,.854-.772H42.24a.862.862,0,0,1,.854.772l.546,4.494h1.707ZM25.627,27.528a.862.862,0,0,1,.854-.772H32a.862.862,0,0,1,.854.772l.546,4.494H25.08ZM19.958,39.043l.546-4.494a.862.862,0,0,1,.854-.772h5.515a.862.862,0,0,1,.854.772l.546,4.494Zm10.244,0,.546-4.494a.862.862,0,0,1,.854-.772h5.515a.862.862,0,0,1,.854.772l.546,4.494Z" transform="translate(-1.238 -3.277)"/></g></svg>