<svg xmlns="http://www.w3.org/2000/svg" width="50" height="50" viewBox="0 0 50 50"><defs><style>.a,.b{fill:#00afaa;}.a{opacity:0.5;}</style></defs><g transform="translate(-3 -3)"><path class="a" d="M18.9,25a6.9,6.9,0,1,0,6.9,6.9A6.9,6.9,0,0,0,18.9,25Zm-.431,6.034h.862a2.166,2.166,0,0,1,.431,4.31v.862a.862.862,0,0,1-1.724,0v-.862h-.862a.862.862,0,0,1,0-1.724h2.155a.431.431,0,0,0,0-.862h-.862a2.155,2.155,0,0,1-.431-4.267v-.905a.862.862,0,0,1,1.724,0v.862h.862a.862.862,0,0,1,0,1.724H18.466a.431.431,0,1,0,0,.862Z" transform="translate(-1.241 -3.034)"/><path class="b" d="M42.9,12a6.9,6.9,0,1,0,6.9,6.9A6.9,6.9,0,0,0,42.9,12Zm-.431,6.034h.862a2.166,2.166,0,1,1,.431,4.31v.862a.862.862,0,1,1-1.724,0v-.862h-.862a.862.862,0,0,1,0-1.724h2.155a.431.431,0,0,0,0-.862h-.862a2.155,2.155,0,0,1-.431-4.267v-.905a.862.862,0,1,1,1.724,0v.862h.862a.862.862,0,1,1,0,1.724H42.466a.431.431,0,0,0,0,.862Z" transform="translate(-4.552 -1.241)"/><path class="b" d="M52.138,51.276H39.207V47.759a6.034,6.034,0,0,0,5.172-5.966V40.069a.862.862,0,0,0-.862-.862,6.035,6.035,0,0,0-4.31,1.819V37.414a6.034,6.034,0,0,0,5.172-5.966V29.724a.862.862,0,0,0-.862-.862,6.034,6.034,0,0,0-4.31,1.819V26.276a8.621,8.621,0,1,0-1.724,0v4.448a6.034,6.034,0,0,0-4.31-1.862.862.862,0,0,0-.862.862v1.724a6.034,6.034,0,0,0,5.172,5.966v3.612a6.034,6.034,0,0,0-4.31-1.819.862.862,0,0,0-.862.862v1.724a6.034,6.034,0,0,0,5.172,5.966v3.517H18.517V47.759a6.034,6.034,0,0,0,5.172-5.966V40.069a.862.862,0,0,0-.862-.862,6.035,6.035,0,0,0-4.31,1.819V37.483a8.621,8.621,0,1,0-1.724,0v3.586a6.034,6.034,0,0,0-4.31-1.862.862.862,0,0,0-.862.862v1.724a6.034,6.034,0,0,0,5.172,5.966v3.517h-4.31a7.759,7.759,0,0,1-7.759-7.759V41.793H6.448a.862.862,0,1,0,0-1.724H4.724V34.034H6.448a.862.862,0,0,0,0-1.724H4.724V26.276H6.448a.862.862,0,1,0,0-1.724H4.724V18.517H6.448a.862.862,0,0,0,0-1.724H4.724V10.759H6.448a.862.862,0,1,0,0-1.724H4.724V3.862A.862.862,0,1,0,3,3.862V43.517A9.483,9.483,0,0,0,12.483,53H52.138a.862.862,0,0,0,0-1.724ZM16.793,46.017a4.31,4.31,0,0,1-3.448-4.224v-.776a4.31,4.31,0,0,1,3.448,4.224Zm5.172-5v.776a4.311,4.311,0,0,1-3.449,4.224v-.776a4.311,4.311,0,0,1,3.449-4.224ZM10.759,28.862a6.9,6.9,0,1,1,6.9,6.9,6.9,6.9,0,0,1-6.9-6.9ZM37.483,46.017a4.31,4.31,0,0,1-3.448-4.224v-.776a4.31,4.31,0,0,1,3.448,4.224Zm0-10.345a4.31,4.31,0,0,1-3.448-4.224v-.776A4.31,4.31,0,0,1,37.483,34.9Zm5.172,5.345v.776a4.311,4.311,0,0,1-3.449,4.224v-.776a4.311,4.311,0,0,1,3.449-4.224Zm0-10.345v.776a4.311,4.311,0,0,1-3.449,4.224V34.9a4.311,4.311,0,0,1,3.449-4.224ZM31.448,17.655a6.9,6.9,0,1,1,6.9,6.9,6.9,6.9,0,0,1-6.9-6.9Z"/></g></svg>