<svg xmlns="http://www.w3.org/2000/svg" width="50" height="50.854" viewBox="0 0 50 50.854"><defs><style>.a,.b{fill:#00afaa;}.a{opacity:0.5;}</style></defs><g transform="translate(-4 -3.026)"><path class="a" d="M22.956,11.028a6.009,6.009,0,0,0-.325-1.342,7.018,7.018,0,0,0-13.228,0,6.351,6.351,0,0,0-.325,1.325v.132a.877.877,0,0,1,0,.149A5.088,5.088,0,0,0,9,12.019a7.307,7.307,0,0,0,.044.772,7.031,7.031,0,0,0,13.991.009,7.623,7.623,0,0,0,0-.781,5.825,5.825,0,0,0-.079-.991Zm-7.377.114h.877a2.2,2.2,0,0,1,.439,4.386v.877a.877.877,0,0,1-1.754,0v-.877h-.877a.877.877,0,0,1,0-1.754h2.193a.439.439,0,1,0,0-.877h-.877a2.193,2.193,0,0,1-.439-4.342V7.633a.877.877,0,0,1,1.754,0V8.51h.877a.877.877,0,1,1,0,1.754H15.579a.439.439,0,1,0,0,.877Z" transform="translate(-0.614 -0.244)"/><rect class="a" width="14.035" height="5.263" rx="1" transform="translate(5.754 46.863)"/><rect class="a" width="14.035" height="5.263" rx="1" transform="translate(21.544 46.863)"/><rect class="a" width="14.035" height="5.263" rx="1" transform="translate(37.333 39.845)"/><rect class="a" width="14.035" height="5.263" rx="1" transform="translate(37.333 32.828)"/><rect class="a" width="14.035" height="5.263" rx="1" transform="translate(37.333 46.863)"/><rect class="a" width="14.035" height="5.263" rx="1" transform="translate(21.544 39.845)"/><rect class="a" width="14.035" height="5.263" rx="1" transform="translate(5.754 39.845)"/><rect class="a" width="14.035" height="5.263" rx="1" transform="translate(21.544 32.828)"/><rect class="a" width="14.035" height="5.263" rx="1" transform="translate(37.333 25.81)"/><path class="a" d="M54,7.789a.772.772,0,0,0-.053-.246.658.658,0,0,0-.132-.211.077.077,0,0,0-.053-.07h0a.763.763,0,0,0-.281-.193.956.956,0,0,0-.36-.07H49.614a.877.877,0,1,0,0,1.754h1.36l-4.64,4.561A57.579,57.579,0,0,1,5.754,29.807h-1.1c-.36,0-.658.395-.658.877s.3.877.658.877h2.1a59.228,59.228,0,0,0,40.807-17l4.684-4.6v1.421a.877.877,0,1,0,1.754,0v-3.6Z" transform="translate(0 -0.488)"/><path class="b" d="M24.447,10.53a8.211,8.211,0,0,0-.412-1.675,8.772,8.772,0,0,0-16.526,0,8.614,8.614,0,0,0-.421,1.754v.2A6.947,6.947,0,0,0,7,11.775a6.825,6.825,0,0,0,.061.974,8.544,8.544,0,0,0,.816,2.789,8.772,8.772,0,0,0,15.842,0,8.561,8.561,0,0,0,.789-2.781,7.017,7.017,0,0,0,.035-.982A7.728,7.728,0,0,0,24.447,10.53Zm-1.658,2.026a7.018,7.018,0,0,1-13.947,0,7.307,7.307,0,0,1-.088-.781A5.088,5.088,0,0,1,8.807,11a.877.877,0,0,0,0-.149v-.1a6.351,6.351,0,0,1,.325-1.325,7.018,7.018,0,0,1,13.228,0,6.009,6.009,0,0,1,.325,1.342,5.824,5.824,0,0,1,.105,1,7.623,7.623,0,0,1,0,.781Z" transform="translate(-0.368)"/><path class="b" d="M53.123,29.632A2.632,2.632,0,0,0,50.491,27H38.211a2.632,2.632,0,0,0-2.632,2.632V33.14A2.562,2.562,0,0,0,35.86,34.3a2.632,2.632,0,0,0-1.158-.281H22.421a2.632,2.632,0,0,0-2.632,2.632v3.509a2.632,2.632,0,0,0,.263,1.14,2.631,2.631,0,0,0-1.14-.263H6.632A2.632,2.632,0,0,0,4,43.667v3.509a2.632,2.632,0,0,0,.675,1.754A2.632,2.632,0,0,0,4,50.684v3.509a2.632,2.632,0,0,0,2.632,2.632H18.912a2.632,2.632,0,0,0,1.754-.675,2.632,2.632,0,0,0,1.754.675H34.7a2.632,2.632,0,0,0,1.754-.675,2.632,2.632,0,0,0,1.754.675H50.491a2.632,2.632,0,0,0,2.632-2.632V50.684a2.632,2.632,0,0,0-.675-1.754,2.632,2.632,0,0,0,.675-1.754V43.667a2.632,2.632,0,0,0-.675-1.754,2.632,2.632,0,0,0,.675-1.754V36.649a2.632,2.632,0,0,0-.684-1.754,2.632,2.632,0,0,0,.684-1.754ZM19.789,54.193a.877.877,0,0,1-.877.877H6.632a.877.877,0,0,1-.877-.877V50.684a.877.877,0,0,1,.877-.877H18.912a.877.877,0,0,1,.877.877Zm0-7.018a.877.877,0,0,1-.877.877H6.632a.877.877,0,0,1-.877-.877V43.667a.877.877,0,0,1,.877-.877H18.912a.877.877,0,0,1,.877.877Zm15.789,7.018a.877.877,0,0,1-.877.877H22.421a.877.877,0,0,1-.877-.877V50.684a.877.877,0,0,1,.877-.877H34.7a.877.877,0,0,1,.877.877Zm0-7.018a.877.877,0,0,1-.877.877H22.421a.877.877,0,0,1-.877-.877V43.667a.877.877,0,0,1,.877-.877H34.7a.877.877,0,0,1,.877.877Zm0-7.018a.877.877,0,0,1-.877.877H22.421a.877.877,0,0,1-.877-.877V36.649a.877.877,0,0,1,.877-.877H34.7a.877.877,0,0,1,.877.877ZM51.368,54.193a.877.877,0,0,1-.877.877H38.211a.877.877,0,0,1-.877-.877V50.684a.877.877,0,0,1,.877-.877H50.491a.877.877,0,0,1,.877.877Zm0-7.018a.877.877,0,0,1-.877.877H38.211a.877.877,0,0,1-.877-.877V43.667a.877.877,0,0,1,.877-.877H50.491a.877.877,0,0,1,.877.877Zm0-7.018a.877.877,0,0,1-.877.877H38.211a.877.877,0,0,1-.877-.877V36.649a.877.877,0,0,1,.877-.877H50.491a.877.877,0,0,1,.877.877Zm0-7.018a.877.877,0,0,1-.877.877H38.211a.877.877,0,0,1-.877-.877V29.632a.877.877,0,0,1,.877-.877H50.491a.877.877,0,0,1,.877.877Z" transform="translate(0 -2.944)"/></g></svg>