<svg xmlns="http://www.w3.org/2000/svg" width="19.038" height="19.038" viewBox="0 0 19.038 19.038"><defs><style>.a{fill:#d0d0d0;}</style></defs><path class="a" d="M50.6,48.277h0V41.294c0-3.416-.735-6.047-4.729-6.047A4.146,4.146,0,0,0,42.139,37.3h-.055V35.566H38.3v12.71H42.24V41.983c0-1.657.314-3.26,2.366-3.26,2.022,0,2.052,1.891,2.052,3.366v6.188Z" transform="translate(-31.563 -29.239)"/><path class="a" d="M11.32,36.59h3.947V49.3H11.32Z" transform="translate(-11.006 -30.262)"/><path class="a" d="M12.286,10a2.3,2.3,0,1,0,2.286,2.286A2.287,2.287,0,0,0,12.286,10Z" transform="translate(-10 -10)"/></svg>