<svg xmlns="http://www.w3.org/2000/svg" width="21.968" height="29.384" viewBox="0 0 21.968 29.384"><defs><style>.a{fill:#eff3f5;}.b{fill:#dbdfe0;}.c{fill:#f1786b;}</style></defs><g transform="translate(0)"><path class="a" d="M88.062,8.839,81.179,2H67.211A1.107,1.107,0,0,0,66.1,3.1V22.665H88.062Z" transform="translate(-66.1 -2)"/><path class="b" d="M326.8,7.881a1.131,1.131,0,0,0,1.13,1.13h5.881L326.8,2Z" transform="translate(-311.843 -2)"/><path class="c" d="M66.2,361.8v7.594a1.121,1.121,0,0,0,1.111,1.13H87.052a1.121,1.121,0,0,0,1.111-1.13V361.8Z" transform="translate(-66.194 -341.141)"/><g transform="translate(3.685 2.749)"><path class="c" d="M133.572,65.849a1.587,1.587,0,0,1-1.024-.4,1.325,1.325,0,0,1-.524-1.277c.259-1.513,3.073-2.9,4.71-3.579a53.793,53.793,0,0,0,2.137-6.811c-.954-2.043-1.289-3.485-.995-4.3a1.153,1.153,0,0,1,.871-.765l.059-.012.059.006a1.272,1.272,0,0,1,.807.53,3.759,3.759,0,0,1,.294,2.891c-.071.377-.188.918-.341,1.566a37.272,37.272,0,0,0,3.1,5.2,9.726,9.726,0,0,1,2.3-.088c1.254.13,1.519.677,1.566.995a1.206,1.206,0,0,1-.854,1.2,2.711,2.711,0,0,1-3.2-1.136c-.047-.059-.094-.124-.141-.188a25.555,25.555,0,0,0-4.6,1.272c-.171.065-.336.13-.5.194-1.1,2.7-2.178,4.245-3.208,4.615A1.408,1.408,0,0,1,133.572,65.849Zm2.767-4.3c-2.337,1.054-3.5,2.1-3.6,2.749a.6.6,0,0,0,.277.606.8.8,0,0,0,.836.183C134.667,64.789,135.538,63.376,136.339,61.546Zm6.888-1.984a1.953,1.953,0,0,0,2.231.777c.283-.118.442-.318.424-.43s-.283-.318-.93-.383A8.665,8.665,0,0,0,143.227,59.562Zm-3.862-4.792c-.359,1.383-.848,3.049-1.419,4.663-.1.277-.194.542-.294.8a27.789,27.789,0,0,1,4.286-1.207A38.928,38.928,0,0,1,139.365,54.77Zm-.53-5.328a.425.425,0,0,0-.277.288,4.926,4.926,0,0,0,.589,2.891q.071-.336.124-.618c.271-1.466.012-2.1-.171-2.337A.659.659,0,0,0,138.835,49.442Z" transform="translate(-132.006 -48.7)"/></g><g transform="translate(5.203 22.278)"><path class="a" d="M310.261,391.59h-1.348v-1.372h1.348a.459.459,0,0,0,0-.918h-1.8a.46.46,0,0,0-.459.459v4.568a.459.459,0,0,0,.918,0V392.5h1.348a.456.456,0,1,0-.006-.913Z" transform="translate(-299.158 -389.3)"/><path class="a" d="M159.189,389.4h-.93a.46.46,0,0,0-.459.459v4.568a.459.459,0,1,0,.918,0V392.6h.471a1.6,1.6,0,0,0,0-3.2Zm0,2.284h-.471v-1.372h.471a.686.686,0,0,1,0,1.372Z" transform="translate(-157.8 -389.394)"/><path class="a" d="M221.86,389.4h-1.2a.46.46,0,0,0-.459.459v4.568a.46.46,0,0,0,.459.459h1.2a2.743,2.743,0,1,0,0-5.487Zm0,4.562h-.742v-3.656h.742a1.828,1.828,0,0,1,0,3.656Z" transform="translate(-216.527 -389.394)"/></g></g></svg>