<svg xmlns="http://www.w3.org/2000/svg" width="19.038" height="15.469" viewBox="0 0 19.038 15.469"><defs><style>.a{fill:#d0d0d0;}</style></defs><path class="a" d="M29.038,19.331a8.137,8.137,0,0,1-2.249.616,3.881,3.881,0,0,0,1.717-2.157,7.8,7.8,0,0,1-2.475.945A3.9,3.9,0,0,0,19.28,21.4a4.019,4.019,0,0,0,.09.89,11.048,11.048,0,0,1-8.045-4.083,3.909,3.909,0,0,0,1.2,5.217,3.854,3.854,0,0,1-1.763-.481,3.935,3.935,0,0,0,3.127,3.878,3.874,3.874,0,0,1-1.762.062,3.94,3.94,0,0,0,3.647,2.719A7.826,7.826,0,0,1,10,31.217a11.109,11.109,0,0,0,17.1-9.355c0-.173-.006-.339-.014-.5A7.786,7.786,0,0,0,29.038,19.331Z" transform="translate(-10 -17.5)"/></svg>